<svg width="32" height="32" viewBox="0 0 32 32" fill="none" xmlns="http://www.w3.org/2000/svg">
<path fill-rule="evenodd" clip-rule="evenodd" d="M24.6931 4.97024C24.6931 4.97024 25.6733 10.667 25.2316 12.5306C25.2316 12.5306 24.2513 14.3431 23.5157 13.6185C23.5157 13.6185 23.1233 13.7727 22.29 7.81861C21.6495 9.19974 21.0098 10.5799 20.3694 11.9611C20.4526 12.5709 20.5376 13.1799 20.6225 13.7889C20.6225 13.7889 20.6709 15.1188 18.1702 15.482C18.1702 15.482 17.3853 10.5118 17.5323 9.94143C17.2069 11.4104 16.676 12.4337 16.2988 13.049C15.0553 15.0722 13.4906 16.1358 10.6696 17.6739C6.30934 20.0497 4.43971 19.8335 2.4622 22.3178C1.66374 23.3213 1.239 24.2729 1.03513 24.7392C-0.29594 27.7786 -0.0410919 30.6449 0.171228 32C0.171228 32 6.49795 27.0297 24.4476 27.3391C24.4476 27.3391 31.9516 21.6917 32 17.0076C32 17.0076 30.5296 20.5043 25.2316 23.3527C25.2316 23.3527 8.99869 23.3009 2.03491 27.0808C2.03491 27.0808 2.03491 24.5957 6.98806 22.524C6.98806 22.524 15.4723 19.9358 16.0856 16.7762C16.0856 16.7762 16.4042 20.3492 16.6004 20.298C16.6004 20.298 19.6405 19.9286 21.4074 16.3619C21.4074 16.3619 21.7506 17.656 22.3877 17.9161C22.3877 17.9161 30.1372 13.8247 27.8811 5.17741C28.0458 5.26714 28.6846 5.58637 29.4907 5.38458C30.2697 5.19088 30.6995 4.63932 30.8158 4.47884C30.657 4.52121 30.4574 4.5559 30.2264 4.55686C29.7736 4.55686 29.4143 4.42678 29.1968 4.32278C29.3735 4.35574 30.0309 4.45462 30.6927 4.03846C31.2253 3.70396 31.4666 3.22053 31.5515 3.02866C31.334 3.16674 30.9934 3.347 30.5457 3.443C30.1695 3.52457 29.8449 3.51832 29.6139 3.49477C29.7982 3.45173 30.482 3.26876 30.9136 2.58894C31.1072 2.28222 31.1845 1.98001 31.2177 1.77553C30.9552 1.90017 29.9401 2.34411 28.7211 1.95492C27.2779 1.49303 26.6587 0.218817 26.5567 0C25.9358 1.65735 25.314 3.31384 24.6931 4.97024Z" fill="#8D0130"/>
</svg>
