<svg width="48" height="48" viewBox="0 0 48 48" fill="none" xmlns="http://www.w3.org/2000/svg">
<path fill-rule="evenodd" clip-rule="evenodd" d="M37.0396 7.4556C37.0396 7.4556 38.51 16.0007 37.8474 18.796C37.8474 18.796 36.377 21.5148 35.2736 20.4279C35.2736 20.4279 34.6849 20.6592 33.435 11.7281C32.4742 13.7998 31.5147 15.8701 30.5541 17.9419C30.679 18.8566 30.8064 19.77 30.9337 20.6834C30.9337 20.6834 31.0064 22.6784 27.2553 23.2232C27.2553 23.2232 26.0779 15.7679 26.2984 14.9124C25.8103 17.1158 25.014 18.6507 24.4483 19.5736C22.5829 22.6085 20.2359 24.2039 16.0044 26.511C9.46402 30.0746 6.65957 29.7504 3.69331 33.4767C2.49562 34.982 1.85851 36.4094 1.5527 37.1089C-0.443904 41.6679 -0.061632 45.9673 0.256848 48C0.256848 48 9.74693 40.5446 36.6713 41.0087C36.6713 41.0087 47.9274 32.5377 48 25.5115C48 25.5115 45.7944 30.7566 37.8474 35.0292C37.8474 35.0292 13.498 34.9515 3.05237 40.6212C3.05237 40.6212 3.05237 36.8937 10.4821 33.7861C10.4821 33.7861 23.2084 29.9038 24.1284 25.1644C24.1284 25.1644 24.6062 30.5239 24.9006 30.4472C24.9006 30.4472 29.4608 29.893 32.1111 24.5429C32.1111 24.5429 32.6258 26.4841 33.5815 26.8742C33.5815 26.8742 45.2057 20.7372 41.8216 7.76635C42.0687 7.90094 43.0269 8.37979 44.2361 8.0771C45.4045 7.78656 46.0493 6.95923 46.2238 6.71851C45.9855 6.78206 45.6861 6.8341 45.3396 6.83554C44.6604 6.83554 44.1214 6.64042 43.7952 6.48442C44.0602 6.53386 45.0464 6.68218 46.0391 6.05794C46.838 5.55619 47.1998 4.83106 47.3272 4.54325C47.0011 4.75037 46.4901 5.02075 45.8186 5.16475C45.2542 5.2871 44.7674 5.27774 44.4209 5.24242C44.6974 5.17786 45.723 4.90339 46.3704 3.88368C46.6608 3.4236 46.7768 2.97029 46.8265 2.66357C46.4328 2.85053 44.9101 3.51643 43.0817 2.93266C40.9169 2.23982 39.988 0.328512 39.8351 0.000288C38.9037 2.4863 37.971 4.97102 37.0396 7.4556V7.4556Z" fill="#060105" fill-opacity="0.87"/>
<path fill-rule="evenodd" clip-rule="evenodd" d="M18 2V0H2H0V2V18H2V2H18ZM42 48H46H48V46V42H46V46H42V48Z" fill="#8D0130"/>
</svg>
